PathFileType	4	(X/Y/Z)	/Users/itak/Documents/Research/Walk-IL/dataset/trc/00351_00011.trc
DataRate	CameraRate	NumFrames	NumMarkers	Units	OrigDataRate	OrigDataStartFrame	OrigNumFrames
100.000000	100.000000	4	53	mm	100.000000	281	751
Frame#	Time	RPSI			LPSI			L3			STRN			T10			C7			CLAV			RBAK			LBAK			LSHO			LUPA			LAEL			LAOL			LWTS			LWPS			LFRA			LIFD			LHPS			LHTS			RSHO			RUPA			RAEL			RAOL			RWTS			RWPS			RFRA			RIFD			RHTS			RHPS			RBHD			LFHD			RFHD			LBHD			LHIP			RHIP			RASI			LASI			LKNE			LTHI			LANK			LTIP			LTOE			LMT1			LMT5			LHEE			RKNE			RTHI			RANK			RTIP			RTOE			RMT1			RMT5			RHEE			
		X1	Y1	Z1	X2	Y2	Z2	X3	Y3	Z3	X4	Y4	Z4	X5	Y5	Z5	X6	Y6	Z6	X7	Y7	Z7	X8	Y8	Z8	X9	Y9	Z9	X10	Y10	Z10	X11	Y11	Z11	X12	Y12	Z12	X13	Y13	Z13	X14	Y14	Z14	X15	Y15	Z15	X16	Y16	Z16	X17	Y17	Z17	X18	Y18	Z18	X19	Y19	Z19	X20	Y20	Z20	X21	Y21	Z21	X22	Y22	Z22	X23	Y23	Z23	X24	Y24	Z24	X25	Y25	Z25	X26	Y26	Z26	X27	Y27	Z27	X28	Y28	Z28	X29	Y29	Z29	X30	Y30	Z30	X31	Y31	Z31	X32	Y32	Z32	X33	Y33	Z33	X34	Y34	Z34	X35	Y35	Z35	X36	Y36	Z36	X37	Y37	Z37	X38	Y38	Z38	X39	Y39	Z39	X40	Y40	Z40	X41	Y41	Z41	X42	Y42	Z42	X43	Y43	Z43	X44	Y44	Z44	X45	Y45	Z45	X46	Y46	Z46	X47	Y47	Z47	X48	Y48	Z48	X49	Y49	Z49	X50	Y50	Z50	X51	Y51	Z51	X52	Y52	Z52	X53	Y53	Z53	

282	2.81	-326.7049865722656	937.897705078125	-0.3033740222454071	-445.0912475585938	949.020263671875	-50.54849624633789	-385.0669860839844	1003.7353515625	-28.84989166259766	-276.3277893066406	1189.383178710938	-228.2015075683594	-399.9558715820312	1122.567993164062	-19.47329521179199	-384.1771240234375	1370.591430664062	-60.68614196777344	-295.6549987792969	1315.889526367188	-189.6578063964844	-360.2955322265625	1230.640258789062	16.80155944824219	-475.3501586914062	1338.723266601562	-104.8896408081055	-476.1388854980469	1358.347045898438	-204.7375946044922	-551.9013671875	1247.702026367188	-232.7615356445312	-584.9092407226562	1054.443969726562	-289.6283264160156	-564.8591918945312	1023.322814941406	-212.0395660400391	-483.4874877929688	852.1111450195312	-416.5790100097656	-551.5593872070312	836.72607421875	-422.1723022460938	-582.7421875	961.2935180664062	-335.3757019042969	-462.7601623535156	701.51123046875	-467.3965148925781	-542.4765014648438	768.599853515625	-440.3098754882812	-482.7296447753906	783.8264770507812	-460.0069274902344	-220.2109069824219	1353.992065429688	-16.20263290405273	-182.0520477294922	1286.7158203125	32.9733772277832	-191.2900238037109	1020.775451660156	77.10000610351562	-277.3156127929688	1021.661560058594	36.22874069213867	-164.4249420166016	777.0303344726562	13.89613437652588	-154.7990264892578	775.3247680664062	90.08467102050781	-175.0696411132812	954.0733032226562	78.19558715820312	-195.0037536621094	608.0467529296875	48.26419067382812	-158.6428833007812	670.52734375	29.66393089294434	-164.5333557128906	688.3783569335938	96.25092315673828	-296.4942016601562	1579.875122070312	-53.53435134887695	-241.6757354736328	1571.189819335938	-255.2917175292969	-184.9037475585938	1568.362426757812	-171.8526458740234	-398.5925903320312	1583.137084960938	-156.76416015625	-515.4423217773438	902.4429321289062	-171.3513946533203	-199.460205078125	878.5874633789062	-38.38094329833984	-201.8408660888672	911.0672607421875	-148.8401184082031	-413.0868225097656	920.2540893554688	-260.9127502441406	-539.8080444335938	453.6712036132812	-202.7949829101562	-529.8423461914062	583.1546020507812	-215.6792144775391	-657.4253540039062	195.0680541992188	133.2561798095703	-613.8853149414062	310.9907531738281	-39.51774597167969	-595.9303588867188	31.36853408813477	51.81419372558594	-553.6679077148438	70.13301086425781	92.09947204589844	-669.7822875976562	77.88627624511719	87.51835632324219	-590.5584106445312	219.0313415527344	160.2903442382812	-226.5068511962891	435.521728515625	-222.8147888183594	-169.6014556884766	683.5857543945312	-150.5032348632812	-339.4407653808594	47.271728515625	-266.3930358886719	-243.7510528564453	319.8024291992188	-261.0243225097656	-229.3861999511719	42.73831176757812	-432.5210876464844	-298.1565551757812	33.4051628112793	-426.7076416015625	-252.0183868408203	37.07673263549805	-319.0831298828125	-407.6343994140625	46.46127319335938	-269.9044799804688	
283	2.82	-324.0693054199219	938.4942626953125	-7.565732479095459	-441.8506164550781	949.1658325195312	-59.42979049682617	-381.1548156738281	1004.66259765625	-36.99142074584961	-270.19287109375	1190.40673828125	-234.8174743652344	-395.4593505859375	1123.519897460938	-27.85210227966309	-379.7581176757812	1371.616821289062	-68.45978546142578	-290.2475891113281	1316.829956054688	-196.5293273925781	-356.3881225585938	1231.598876953125	9.267575263977051	-470.4851989746094	1339.747192382812	-113.4731140136719	-470.4310302734375	1359.205078125	-213.4276885986328	-546.1314086914062	1248.420288085938	-240.8206176757812	-579.3642578125	1054.071166992188	-293.5086669921875	-560.172119140625	1024.731201171875	-215.1333770751953	-479.3724975585938	846.6697998046875	-413.6770324707031	-547.6657104492188	832.2186889648438	-419.5586853027344	-577.9487915039062	959.57568359375	-336.6535034179688	-460.5174865722656	694.1608276367188	-459.6409606933594	-539.447998046875	763.4353637695312	-435.5306091308594	-479.1122436523438	777.056884765625	-454.9970092773438	-216.1425170898438	1355.123779296875	-22.51793670654297	-177.8607330322266	1287.754638671875	26.43161964416504	-185.6860504150391	1021.330932617188	68.12718200683594	-271.6921691894531	1022.040771484375	27.33565330505371	-156.7102203369141	778.7062377929688	0.6368550062179565	-147.1571350097656	775.7169799804688	76.81484222412109	-168.8733978271484	954.4658813476562	67.86006164550781	-185.6494140625	608.8224487304688	32.06709289550781	-149.8474731445312	671.9544067382812	14.52385711669922	-156.0890045166016	688.5580444335938	81.43333435058594	-291.9082641601562	1580.445190429688	-59.88151550292969	-234.7034606933594	1572.40673828125	-260.9935913085938	-178.9795532226562	1569.144287109375	-176.8702087402344	-392.7579956054688	1584.242309570312	-164.3248748779297	-509.7967529296875	902.7517700195312	-182.1253509521484	-196.0574645996094	879.4108276367188	-43.30075454711914	-196.1089630126953	912.1098022460938	-153.8102569580078	-405.4158935546875	921.4782104492188	-269.4378356933594	-531.4730224609375	454.1941833496094	-224.8799133300781	-521.8168334960938	583.6437377929688	-234.5883483886719	-658.3544311523438	204.5833587646484	112.0287704467773	-609.6981811523438	314.482666015625	-61.71176910400391	-594.01904296875	29.96981430053711	44.22685623168945	-553.42529296875	76.49607849121094	82.76958465576172	-668.53564453125	84.04827117919922	73.33258819580078	-592.6526489257812	229.8754119873047	140.4239959716797	-223.1776428222656	435.460205078125	-226.3274688720703	-165.5186462402344	684.11181640625	-155.2972259521484	-339.2793273925781	47.37034225463867	-266.5583801269531	-241.3964233398438	319.4915161132812	-264.1035461425781	-229.2356719970703	42.02001571655273	-432.7233581542969	-298.1736145019531	33.19313049316406	-426.8897399902344	-252.0063629150391	36.99814224243164	-319.2735595703125	-407.4710083007812	46.65616989135742	-269.8684997558594	
284	2.83	-321.486572265625	938.984375	-14.59033012390137	-438.6441955566406	949.3766479492188	-68.2384033203125	-377.4385375976562	1005.638305664062	-44.7223014831543	-264.1387634277344	1191.359375	-241.1136474609375	-391.1119689941406	1124.556274414062	-35.98461532592773	-375.4743957519531	1372.7265625	-76.14153289794922	-284.8865051269531	1317.74853515625	-203.2359619140625	-352.6651916503906	1232.6494140625	1.90954577922821	-465.7550354003906	1340.794311523438	-122.0114364624023	-464.7644348144531	1360.032104492188	-222.0892333984375	-540.370361328125	1249.107666015625	-248.9026184082031	-573.7013549804688	1053.7294921875	-297.430908203125	-555.4588623046875	1026.189819335938	-218.2908172607422	-475.5730590820312	841.348388671875	-410.6387023925781	-544.04833984375	827.7182006835938	-416.5282897949219	-573.193115234375	957.8682250976562	-337.8094177246094	-458.6913452148438	687.1632080078125	-451.7987060546875	-536.7300415039062	758.375244140625	-430.3009948730469	-476.0005493164062	770.4947509765625	-449.8070373535156	-212.2265472412109	1356.337646484375	-28.67002296447754	-173.8251953125	1288.920776367188	20.13520622253418	-179.8935241699219	1022.020141601562	59.25089263916016	-266.0047607421875	1022.468994140625	18.76593208312988	-148.6591186523438	780.731201171875	-12.74059772491455	-139.0578765869141	776.3135986328125	63.35565567016602	-162.4748229980469	955.0052490234375	57.61151885986328	-175.6195526123047	609.9178466796875	15.52125835418701	-140.50390625	673.7669677734375	-0.92886883020401	-146.9836730957031	689.0269165039062	66.337646484375	-287.3815307617188	1581.054443359375	-66.21884918212891	-227.7153167724609	1573.538696289062	-266.621826171875	-173.0579986572266	1569.878662109375	-181.815185546875	-386.9184265136719	1585.358520507812	-171.9005584716797	-504.1044311523438	903.0504760742188	-192.6602935791016	-192.7529144287109	880.1092529296875	-47.98934936523438	-190.4758605957031	913.128173828125	-158.5215148925781	-397.8052368164062	922.7257080078125	-277.7361145019531	-522.3779296875	454.8840637207031	-247.0288238525391	-513.2620849609375	584.4397583007812	-253.4766082763672	-658.5220947265625	213.1424560546875	89.83722686767578	-604.6838989257812	317.67724609375	-84.43156433105469	-591.1063842773438	29.49700164794922	34.61042785644531	-552.5697021484375	83.07190704345703	71.73072052001953	-666.5514526367188	90.21103668212891	56.90314483642578	-594.2442016601562	239.7512969970703	119.8671493530273	-220.0404968261719	435.2070007324219	-229.4059448242188	-161.6161346435547	684.4088134765625	-159.6495513916016	-339.16796875	47.38874816894531	-266.6169128417969	-239.2178497314453	319.1245727539062	-266.8798217773438	-229.1169281005859	41.55743026733398	-432.7730407714844	-298.1772155761719	33.10498428344727	-426.9717102050781	-251.9655914306641	36.90297317504883	-319.3426513671875	-407.3393859863281	46.80355834960938	-269.7985229492188	
285	2.84	-318.90380859375	939.4158935546875	-21.40576934814453	-435.3995666503906	949.6781616210938	-77.01620483398438	-373.8904113769531	1006.671081542969	-52.06508255004883	-258.1696472167969	1192.272827148438	-247.1322937011719	-386.9422302246094	1125.649047851562	-43.86503601074219	-371.3236389160156	1373.901000976562	-83.71729278564453	-279.5780029296875	1318.657592773438	-209.7607116699219	-349.1096496582031	1233.767578125	-5.268980503082275	-461.1571350097656	1341.8583984375	-130.4795989990234	-459.1517944335938	1360.834228515625	-230.6854705810547	-534.6226806640625	1249.761596679688	-256.96240234375	-567.9098510742188	1053.424560546875	-301.3868713378906	-550.7052001953125	1027.70458984375	-221.4964141845703	-472.0519104003906	836.18359375	-407.4841613769531	-540.6841430664062	823.3043823242188	-413.1576232910156	-568.4598388671875	956.211181640625	-338.8660278320312	-457.2193908691406	680.5396728515625	-443.8326416015625	-534.3097534179688	753.489501953125	-424.6915893554688	-473.3258666992188	764.1721801757812	-444.4394226074219	-208.4778137207031	1357.617431640625	-34.64258575439453	-169.9759674072266	1290.18994140625	14.10871028900146	-173.9307556152344	1022.852416992188	50.50515365600586	-260.2843017578125	1022.946105957031	10.56579971313477	-140.3031616210938	783.142333984375	-26.18032836914062	-130.5180969238281	777.1508178710938	49.7500114440918	-155.9050750732422	955.6948852539062	47.49588394165039	-164.9210815429688	611.3992309570312	-1.379951119422913	-130.6460418701172	676.0189208984375	-16.66982841491699	-137.2381134033203	689.8231201171875	50.98448944091797	-282.9171447753906	1581.732788085938	-72.54879760742188	-220.7266693115234	1574.562377929688	-272.18017578125	-167.1468811035156	1570.563232421875	-186.6955871582031	-381.0877685546875	1586.4970703125	-179.4871978759766	-498.3164672851562	903.4190063476562	-202.9562530517578	-189.51025390625	880.6866455078125	-52.48846817016602	-184.9422302246094	914.0936279296875	-163.0037841796875	-390.2291870117188	924.0244750976562	-285.8281555175781	-512.5078735351562	455.7546081542969	-269.0884094238281	-504.1625061035156	585.5833129882812	-272.159912109375	-657.8450317382812	220.507080078125	66.93308258056641	-598.8065185546875	320.5679626464844	-107.4943389892578	-587.127197265625	30.20359992980957	22.51918411254883	-550.9623413085938	89.58794403076172	58.72142791748047	-663.7579956054688	96.03679656982422	38.26476287841797	-595.2438354492188	248.4127044677734	98.80619049072266	-217.1745910644531	434.7827453613281	-232.044189453125	-157.9429321289062	684.4185791015625	-163.5067291259766	-339.0968627929688	47.36309814453125	-266.6132507324219	-237.2374725341797	318.7116394042969	-269.3047180175781	-229.0321807861328	41.26967620849609	-432.7372131347656	-298.1732788085938	33.08683395385742	-426.9916687011719	-251.9081573486328	36.80393600463867	-319.3349609375	-407.2404479980469	46.91941070556641	-269.7228088378906	
